{
    "asset" : {
        "generator" : "Khronos glTF Blender I/O v3.4.50",
        "version" : "2.0"
    },
    "scene" : 0,
    "scenes" : [
        {
            "name" : "Scene",
            "nodes" : [
                2
            ]
        }
    ],
    "nodes" : [
        {
            "mesh" : 0,
            "name" : "lid",
            "translation" : [
                0.0010613054037094116,
                0.00029854633612558246,
                0
            ]
        },
        {
            "mesh" : 1,
            "name" : "pot",
            "translation" : [
                0.0010613054037094116,
                0.00029854633612558246,
                0
            ]
        },
        {
            "children" : [
                0,
                1
            ],
            "name" : "teapot_grp",
            "scale" : [
                100,
                100,
                100
            ]
        }
    ],
    "materials" : [
        {
            "doubleSided" : true,
            "name" : "m_pot.001",
            "normalTexture" : {
                "index" : 0
            },
            "occlusionTexture" : {
                "index" : 1
            },
            "pbrMetallicRoughness" : {
                "baseColorTexture" : {
                    "index" : 2
                },
                "metallicRoughnessTexture" : {
                    "index" : 1
                }
            }
        }
    ],
    "meshes" : [
        {
            "name" : "Mesh",
            "primitives" : [
                {
                    "attributes" : {
                        "POSITION" : 0,
                        "TEXCOORD_0" : 1,
                        "NORMAL" : 2
                    },
                    "indices" : 3,
                    "material" : 0
                }
            ]
        },
        {
            "name" : "Mesh.001",
            "primitives" : [
                {
                    "attributes" : {
                        "POSITION" : 4,
                        "TEXCOORD_0" : 5,
                        "NORMAL" : 6
                    },
                    "indices" : 7,
                    "material" : 0
                }
            ]
        }
    ],
    "textures" : [
        {
            "sampler" : 0,
            "source" : 0
        },
        {
            "sampler" : 0,
            "source" : 1
        },
        {
            "sampler" : 0,
            "source" : 2
        }
    ],
    "images" : [
        {
            "mimeType" : "image/png",
            "name" : "pot_norm",
            "uri" : "pot_norm.png"
        },
        {
            "mimeType" : "image/png",
            "name" : "pot_ao-pot_rough-pot_metal",
            "uri" : "pot_ao-pot_rough-pot_metal.png"
        },
        {
            "mimeType" : "image/png",
            "name" : "pot_basecolor",
            "uri" : "pot_basecolor.png"
        }
    ],
    "accessors" : [
        {
            "bufferView" : 0,
            "componentType" : 5126,
            "count" : 3787,
            "max" : [
                0.03235451504588127,
                0.1043267697095871,
                0.032354507595300674
            ],
            "min" : [
                -0.03235451504588127,
                0.08784975856542587,
                -0.03235452249646187
            ],
            "type" : "VEC3"
        },
        {
            "bufferView" : 1,
            "componentType" : 5126,
            "count" : 3787,
            "type" : "VEC2"
        },
        {
            "bufferView" : 2,
            "componentType" : 5126,
            "count" : 3787,
            "type" : "VEC3"
        },
        {
            "bufferView" : 3,
            "componentType" : 5123,
            "count" : 21024,
            "type" : "SCALAR"
        },
        {
            "bufferView" : 4,
            "componentType" : 5126,
            "count" : 7213,
            "max" : [
                0.08409964293241501,
                0.0990457534790039,
                0.050218310207128525
            ],
            "min" : [
                -0.08622225373983383,
                -0.00029854633612558246,
                -0.05021831765770912
            ],
            "type" : "VEC3"
        },
        {
            "bufferView" : 5,
            "componentType" : 5126,
            "count" : 7213,
            "type" : "VEC2"
        },
        {
            "bufferView" : 6,
            "componentType" : 5126,
            "count" : 7213,
            "type" : "VEC3"
        },
        {
            "bufferView" : 7,
            "componentType" : 5123,
            "count" : 40080,
            "type" : "SCALAR"
        }
    ],
    "bufferViews" : [
        {
            "buffer" : 0,
            "byteLength" : 45444,
            "byteOffset" : 0,
            "target" : 34962
        },
        {
            "buffer" : 0,
            "byteLength" : 30296,
            "byteOffset" : 45444,
            "target" : 34962
        },
        {
            "buffer" : 0,
            "byteLength" : 45444,
            "byteOffset" : 75740,
            "target" : 34962
        },
        {
            "buffer" : 0,
            "byteLength" : 42048,
            "byteOffset" : 121184,
            "target" : 34963
        },
        {
            "buffer" : 0,
            "byteLength" : 86556,
            "byteOffset" : 163232,
            "target" : 34962
        },
        {
            "buffer" : 0,
            "byteLength" : 57704,
            "byteOffset" : 249788,
            "target" : 34962
        },
        {
            "buffer" : 0,
            "byteLength" : 86556,
            "byteOffset" : 307492,
            "target" : 34962
        },
        {
            "buffer" : 0,
            "byteLength" : 80160,
            "byteOffset" : 394048,
            "target" : 34963
        }
    ],
    "samplers" : [
        {
            "magFilter" : 9729,
            "minFilter" : 9987
        }
    ],
    "buffers" : [
        {
            "byteLength" : 474208,
            "uri" : "teapot.bin"
        }
    ]
}
