{
    "asset" : {
        "generator" : "Khronos glTF Blender I/O v3.4.50",
        "version" : "2.0"
    },
    "scene" : 0,
    "scenes" : [
        {
            "name" : "Scene",
            "nodes" : [
                1
            ]
        }
    ],
    "nodes" : [
        {
            "mesh" : 0,
            "name" : "military_uniform",
            "translation" : [
                0,
                7.62939453125e-06,
                -3.814697265625e-06
            ]
        },
        {
            "children" : [
                0
            ],
            "name" : "military_uniform_grp"
        }
    ],
    "materials" : [
        {
            "doubleSided" : true,
            "name" : "military_uniform_mat.001",
            "normalTexture" : {
                "index" : 0
            },
            "pbrMetallicRoughness" : {
                "baseColorTexture" : {
                    "index" : 1
                },
                "metallicRoughnessTexture" : {
                    "index" : 2
                }
            }
        }
    ],
    "meshes" : [
        {
            "name" : "Mesh",
            "primitives" : [
                {
                    "attributes" : {
                        "POSITION" : 0,
                        "TEXCOORD_0" : 1,
                        "NORMAL" : 2
                    },
                    "indices" : 3,
                    "material" : 0
                }
            ]
        }
    ],
    "textures" : [
        {
            "sampler" : 0,
            "source" : 0
        },
        {
            "sampler" : 0,
            "source" : 1
        },
        {
            "sampler" : 0,
            "source" : 2
        }
    ],
    "images" : [
        {
            "mimeType" : "image/png",
            "name" : "Military_Uniform_norm",
            "uri" : "Military_Uniform_norm.jpg"
        },
        {
            "mimeType" : "image/png",
            "name" : "Military_Uniform_bcolor",
            "uri" : "Military_Uniform_bcolor.jpg"
        },
        {
            "mimeType" : "image/png",
            "name" : "Military_Uniform_metal-Military_Uniform_rough",
            "uri" : "Military_Uniform_metal-Military_Uniform_rough.jpg"
        }
    ],
    "accessors" : [
        {
            "bufferView" : 0,
            "componentType" : 5126,
            "count" : 55470,
            "max" : [
                58.58671951293945,
                67.6437759399414,
                15.920313835144043
            ],
            "min" : [
                -58.586727142333984,
                -1.52587890625e-05,
                -15.920295715332031
            ],
            "type" : "VEC3"
        },
        {
            "bufferView" : 1,
            "componentType" : 5126,
            "count" : 55470,
            "type" : "VEC2"
        },
        {
            "bufferView" : 2,
            "componentType" : 5126,
            "count" : 55470,
            "type" : "VEC3"
        },
        {
            "bufferView" : 3,
            "componentType" : 5123,
            "count" : 83178,
            "type" : "SCALAR"
        }
    ],
    "bufferViews" : [
        {
            "buffer" : 0,
            "byteLength" : 665640,
            "byteOffset" : 0,
            "target" : 34962
        },
        {
            "buffer" : 0,
            "byteLength" : 443760,
            "byteOffset" : 665640,
            "target" : 34962
        },
        {
            "buffer" : 0,
            "byteLength" : 665640,
            "byteOffset" : 1109400,
            "target" : 34962
        },
        {
            "buffer" : 0,
            "byteLength" : 166356,
            "byteOffset" : 1775040,
            "target" : 34963
        }
    ],
    "samplers" : [
        {
            "magFilter" : 9729,
            "minFilter" : 9987
        }
    ],
    "buffers" : [
        {
            "byteLength" : 1941396,
            "uri" : "military_uniform.bin"
        }
    ]
}
