{
	"asset":{
		"generator":"Khronos glTF Blender I/O v3.6.27",
		"version":"2.0"
	},
	"extensionsUsed":[
		"KHR_materials_specular",
		"KHR_materials_ior"
	],
	"scene":0,
	"scenes":[
		{
			"name":"Scene",
			"nodes":[
				0
			]
		}
	],
	"nodes":[
		{
			"mesh":0,
			"name":"gun"
			
		}
	],
	
	"materials":[
		{
			"doubleSided":true,
			"extensions":{
				"KHR_materials_specular":{
					"specularColorFactor":[
						0.883869661431573,
						0.883869661431573,
						0.883869661431573
					]
				},
				"KHR_materials_ior":{
					"ior":1.4500000476837158
				}
			},
			"name":"gun",
			"pbrMetallicRoughness":{
				"baseColorTexture":{
					"index":0
				},
				"metallicRoughnessTexture":{
					"index":1
				}
			}
		}
	],
	"meshes":[
		{
			"name":"Circle.002",
			"primitives":[
				{
					"attributes":{
						"POSITION":0,
						"NORMAL":1,
						"TEXCOORD_0":2
					},
					"indices":3,
					"material":0
				}
			]
		}
	],
	"textures":[
		{
			"sampler":0,
			"source":0
		},
		{
			"sampler":0,
			"source":0
		},
		{
			"sampler":0,
			"source":1
		}
	],
	"images": [
		{
			"mimeType": "image/png",
			"name": "diffuse",
			"uri": "diffuse.png"
		},
		{
			"mimeType": "image/png",
			"name": "roughness",
			"uri": "roughness.png"
		}
	],
	"accessors":[
		{
			"bufferView":0,
			"componentType":5126,
			"count":5087,
			"max":[
				0.501861572265625,
				0.03811857849359512,
				0.13523660600185394
			],
			"min":[
				-0.5417861342430115,
				-0.03860452026128769,
				-0.17595495283603668
			],
			"type":"VEC3"
		},
		{
			"bufferView":1,
			"componentType":5126,
			"count":5087,
			"type":"VEC3"
		},
		{
			"bufferView":2,
			"componentType":5126,
			"count":5087,
			"type":"VEC2"
		},
		{
			"bufferView":3,
			"componentType":5123,
			"count":15666,
			"type":"SCALAR"
		},
		{
			"bufferView":4,
			"componentType":5126,
			"count":1,
			"max":[
				0.06666666666666667
			],
			"min":[
				0.06666666666666667
			],
			"type":"SCALAR"
		},
		{
			"bufferView":5,
			"componentType":5126,
			"count":1,
			"type":"VEC3"
		},
		{
			"bufferView":6,
			"componentType":5126,
			"count":1,
			"type":"VEC4"
		},
		{
			"bufferView":7,
			"componentType":5126,
			"count":1,
			"type":"VEC3"
		}
	],
	"bufferViews":[
		{
			"buffer":0,
			"byteLength":61044,
			"byteOffset":0,
			"target":34962
		},
		{
			"buffer":0,
			"byteLength":61044,
			"byteOffset":61044,
			"target":34962
		},
		{
			"buffer":0,
			"byteLength":40696,
			"byteOffset":122088,
			"target":34962
		},
		{
			"buffer":0,
			"byteLength":31332,
			"byteOffset":162784,
			"target":34963
		},
		{
			"buffer":0,
			"byteLength":4,
			"byteOffset":194116
		},
		{
			"buffer":0,
			"byteLength":12,
			"byteOffset":194120
		},
		{
			"buffer":0,
			"byteLength":16,
			"byteOffset":194132
		},
		{
			"buffer":0,
			"byteLength":12,
			"byteOffset":194148
		}
	],
	"samplers":[
		{
			"magFilter":9729,
			"minFilter":9987
		}
	],
	"buffers":[
		{
			"byteLength":194160,
			"uri":"gun.bin"
		}
	]
}
